<?xml version="1.0" standalone="no"?>
<!DOCTYPE svg PUBLIC "-//W3C//DTD SVG 20010904//EN"
 "http://www.w3.org/TR/2001/REC-SVG-20010904/DTD/svg10.dtd">
<svg version="1.0" xmlns="http://www.w3.org/2000/svg"
 width="700.000000pt" height="700.000000pt" viewBox="0 0 700.000000 700.000000"
 preserveAspectRatio="xMidYMid meet">
<metadata>
Created by potrace 1.14, written by Peter Selinger 2001-2017
</metadata>
<g transform="translate(0.000000,700.000000) scale(0.100000,-0.100000)"
fill="#000000" stroke="none">
<path d="M1303 4637 c-852 -851 -963 -966 -963 -992 0 -24 14 -45 70 -100 l70
-69 -39 -41 c-76 -79 -165 24 915 -1056 760 -760 974 -969 993 -969 34 0 261
225 261 259 0 15 -25 49 -72 97 l-71 74 46 49 c26 28 47 53 47 56 0 24 -104
132 -764 793 l-741 742 778 778 c504 504 777 784 777 797 0 11 -31 51 -72 92
l-72 72 47 50 c26 28 47 58 47 67 0 10 -55 73 -122 141 -93 93 -128 123 -147
123 -21 0 -216 -190 -988 -963z"/>
<path d="M4502 5477 c-67 -68 -122 -132 -122 -141 0 -10 32 -51 70 -90 39 -40
70 -77 70 -82 0 -6 -18 -28 -40 -49 -22 -21 -40 -48 -40 -60 0 -13 245 -265
750 -770 l750 -750 -780 -780 c-589 -589 -780 -786 -780 -804 0 -15 24 -48 71
-97 l72 -74 -42 -45 c-22 -24 -41 -55 -41 -67 0 -33 227 -258 261 -258 19 0
232 208 992 968 583 584 967 975 967 986 0 10 -32 51 -71 92 l-72 74 42 45
c23 25 41 55 41 67 0 31 -1925 1958 -1956 1958 -12 0 -65 -45 -142 -123z"/>
<path d="M3324 4426 c-18 -14 -19 -35 -22 -702 -3 -745 -4 -726 51 -739 12 -4
27 -16 32 -28 10 -21 15 -22 200 -25 184 -3 191 -2 208 19 16 20 17 69 17 705
0 671 0 684 -20 704 -11 11 -27 20 -35 20 -8 0 -15 5 -15 10 0 6 -9 19 -20 30
-19 19 -33 20 -198 20 -138 0 -183 -3 -198 -14z"/>
<path d="M3324 2426 c-17 -13 -19 -30 -22 -178 -4 -184 3 -215 46 -224 15 -3
32 -15 37 -27 10 -21 16 -22 194 -25 127 -2 188 1 197 9 22 18 20 361 -2 383
-8 9 -22 16 -29 16 -8 0 -20 10 -26 23 -7 12 -17 25 -23 29 -6 4 -88 8 -182 8
-131 0 -175 -3 -190 -14z"/>
</g>
</svg>
